<svg width="38" height="42" viewBox="0 0 38 42" fill="none" xmlns="http://www.w3.org/2000/svg">
<path d="M36.5979 9.69076L32.0754 7.10649V35.031L36.7263 31.7089C37.123 31.4256 37.3584 30.9681 37.3584 30.4806V11.0013C37.3584 10.4596 37.0682 9.9595 36.5979 9.69076Z" fill="#205341"/>
<path d="M26.7924 37.6725V18.0499L22.2699 20.6341C21.7996 20.9029 21.5094 21.403 21.5094 21.9447V40.6913L26.7924 37.6725Z" fill="#205341"/>
<path d="M11.7039 25.9172L16.2264 23.3329V40.6913L11.7039 38.1071C11.2336 37.8383 10.9434 37.3382 10.9434 36.7965V27.2277C10.9434 26.686 11.2336 26.1859 11.7039 25.9172Z" fill="#205341"/>
<path d="M1.13789 32.0694L5.66036 34.6536V24.2366C5.66036 23.6802 5.96651 23.1689 6.45701 22.9061L25.9958 12.4389C26.4863 12.1762 26.7924 11.6648 26.7924 11.1084V4.9117C26.7924 4.3981 26.5312 3.91974 26.0992 3.642L21.5094 0.691406V8.08952C21.5094 8.64597 21.2032 9.15729 20.7127 9.42006L1.174 19.8872C0.683498 20.15 0.37735 20.6613 0.37735 21.2178V30.7588C0.37735 31.3005 0.667593 31.8006 1.13789 32.0694Z" fill="#205341"/>
<path d="M1.13789 9.3134L16.2264 0.691406V5.09846C16.2264 5.64013 15.9361 6.14027 15.4658 6.40901L0.37735 15.031V10.624C0.37735 10.0823 0.667592 9.58214 1.13789 9.3134Z" fill="#205341"/>
<path d="M36.5979 9.69076L32.0754 7.10649V35.031L36.7263 31.7089C37.123 31.4256 37.3584 30.9681 37.3584 30.4806V11.0013C37.3584 10.4596 37.0682 9.9595 36.5979 9.69076Z" stroke="#205341" stroke-width="0.754716"/>
<path d="M26.7924 37.6725V18.0499L22.2699 20.6341C21.7996 20.9029 21.5094 21.403 21.5094 21.9447V40.6913L26.7924 37.6725Z" stroke="#205341" stroke-width="0.754716"/>
<path d="M11.7039 25.9172L16.2264 23.3329V40.6913L11.7039 38.1071C11.2336 37.8383 10.9434 37.3382 10.9434 36.7965V27.2277C10.9434 26.686 11.2336 26.1859 11.7039 25.9172Z" stroke="#205341" stroke-width="0.754716"/>
<path d="M1.13789 32.0694L5.66036 34.6536V24.2366C5.66036 23.6802 5.96651 23.1689 6.45701 22.9061L25.9958 12.4389C26.4863 12.1762 26.7924 11.6648 26.7924 11.1084V4.9117C26.7924 4.3981 26.5312 3.91974 26.0992 3.642L21.5094 0.691406V8.08952C21.5094 8.64597 21.2032 9.15729 20.7127 9.42006L1.174 19.8872C0.683498 20.15 0.37735 20.6613 0.37735 21.2178V30.7588C0.37735 31.3005 0.667593 31.8006 1.13789 32.0694Z" stroke="#205341" stroke-width="0.754716"/>
<path d="M1.13789 9.3134L16.2264 0.691406V5.09846C16.2264 5.64013 15.9361 6.14027 15.4658 6.40901L0.37735 15.031V10.624C0.37735 10.0823 0.667592 9.58214 1.13789 9.3134Z" stroke="#205341" stroke-width="0.754716"/>
<path d="M15.849 5.75488L0.754303 14.3799V9.9668L15.849 1.3418V5.75488Z" fill="#205341" stroke="#205341" stroke-width="0.754716"/>
<path d="M23.2719 13.3633L5.95651 22.7422L5.31589 18.2549L21.3462 9.51074L23.2719 13.3633Z" fill="#205341" stroke="#205341" stroke-width="0.754716"/>
<path d="M5.2825 34.0029L0.754181 31.4141V20.5332L5.2825 17.9453V34.0029Z" fill="#205341" stroke="#205341" stroke-width="0.754716"/>
<path d="M15.8486 40.041L11.3203 37.4521V26.5713L15.8486 23.9834V40.041Z" fill="#205341" stroke="#205341" stroke-width="0.754716"/>
<path d="M26.4147 37.4395L21.8864 39.7031V21.2881L26.4147 18.7002V37.4395Z" fill="#205341" stroke="#205341" stroke-width="0.754716"/>
<path d="M36.9808 10.3501V31.063L32.4525 34.2974V7.91357L36.9808 10.3501Z" fill="#205341" stroke="#205341" stroke-width="0.754716"/>
<path d="M26.4049 4.65234L26.0475 11.7871L23.8756 13.0283L21.8864 10.376V1.42383L26.4049 4.65234Z" fill="#205341" stroke="#205341" stroke-width="0.754716"/>
</svg>
